<svg width="32" height="32" viewBox="0 0 32 32" fill="none" xmlns="http://www.w3.org/2000/svg">
<g clip-path="url(#clip0_1_3594)">
<path d="M16.0001 31.9844C1.79775 31.9701 -5.34599 14.7222 4.68649 4.67069C10.642 -1.53561 21.3583 -1.53661 27.3138 4.67094C37.3462 14.7234 30.2016 31.971 16.0001 31.9844ZM16.0001 2.48445C8.55617 2.48445 2.50012 8.5405 2.50012 15.9844C3.24168 33.894 28.7612 33.8888 29.5001 15.9843C29.5001 8.54056 23.444 2.48445 16.0001 2.48445ZM21.8215 20.038L17.8722 16.0888C17.907 15.5055 17.6582 14.9481 17.2495 14.5864C17.2498 14.5733 17.2501 14.5602 17.2501 14.547V7.2345C17.1841 5.576 14.8155 5.57725 14.7501 7.2345V14.547C14.7501 14.5602 14.7503 14.5733 14.7507 14.5864C13.4435 15.7565 14.3303 17.948 16.1044 17.8566L20.0536 21.8058C20.5418 22.294 21.3333 22.294 21.8214 21.8058C22.3096 21.3177 22.3096 20.5262 21.8215 20.038Z" fill="#333333"/>
</g>
<defs>
<clipPath id="clip0_1_3594">
<rect width="32" height="32" fill="white"/>
</clipPath>
</defs>
</svg>
