<svg width="24" height="24" viewBox="0 0 24 24" fill="none" xmlns="http://www.w3.org/2000/svg">
<g clip-path="url(#clip0_1_13921)">
<path d="M23.183 14.7814H20.3691V14.0906C20.3688 13.8257 20.2635 13.5718 20.0762 13.3845C19.8889 13.1972 19.635 13.0919 19.3701 13.0916H16.9854C16.7205 13.0919 16.4666 13.1972 16.2793 13.3845C16.092 13.5718 15.9867 13.8257 15.9864 14.0906V14.7816H15.0225C14.4792 14.2081 13.7176 13.7691 12.7567 13.4774C12.7529 13.4762 12.749 13.4751 12.7452 13.4741C11.7836 13.215 11.0635 13.0019 10.5353 12.842C10.5072 12.5103 10.4833 12.1904 10.4623 11.8745C11.2309 11.305 11.7867 10.4946 12.0411 9.57243H12.7445C13.0687 9.57207 13.3795 9.44314 13.6087 9.21391C13.8379 8.98468 13.9669 8.67388 13.9673 8.3497V6.95503C13.9669 6.69662 13.8848 6.44495 13.7328 6.23602C13.5807 6.02708 13.3665 5.87158 13.1207 5.79178C13.1219 5.66081 13.1236 5.53031 13.1254 5.40271C13.1538 3.29334 13.1831 1.11257 10.1099 0.444464C8.67386 0.0946838 7.17487 0.0946838 5.73886 0.444464C2.66541 1.11234 2.69471 3.29329 2.72311 5.40248C2.72475 5.52604 2.7264 5.65209 2.72752 5.77865C2.47141 5.85134 2.24596 6.00551 2.08532 6.21781C1.92468 6.43012 1.8376 6.68899 1.83727 6.95521V8.34965C1.83764 8.67383 1.96659 8.98463 2.19583 9.21386C2.42507 9.44309 2.73587 9.57203 3.06005 9.57239H3.80733C4.04247 10.4257 4.53651 11.1851 5.22136 11.7459C5.19268 12.1927 5.16591 12.5725 5.14135 12.8803C4.62572 13.0356 3.94388 13.2355 3.05925 13.4738C3.05546 13.4748 3.05166 13.4759 3.04786 13.4771C1.52841 13.9386 0.520317 14.7591 0.0508641 15.9158C0.0329938 15.9599 0.0236875 16.007 0.0234422 16.0546L4.68794e-06 20.6601C-0.000242331 20.7095 0.00927502 20.7584 0.0280099 20.8041C0.0467448 20.8499 0.0743279 20.8914 0.109175 20.9264C0.144021 20.9615 0.185444 20.9892 0.231064 21.0082C0.276684 21.0272 0.325601 21.0369 0.375005 21.0369H6.54985L7.58682 22.6494C7.62078 22.7022 7.66745 22.7457 7.72256 22.7758C7.77767 22.8059 7.83945 22.8216 7.90224 22.8216C7.96503 22.8216 8.02681 22.8059 8.08192 22.7758C8.13703 22.7457 8.1837 22.7022 8.21766 22.6494L9.25463 21.0369H12.8496V22.9902C12.8498 23.21 12.9371 23.4207 13.0926 23.5761C13.248 23.7315 13.4587 23.819 13.6785 23.8192H22.677C22.8968 23.819 23.1075 23.7315 23.2629 23.5761C23.4184 23.4207 23.5058 23.21 23.5059 22.9902V19.4687C23.6525 19.4055 23.7773 19.3009 23.8651 19.1676C23.9529 19.0343 23.9998 18.8783 24 18.7187V15.5984C23.9998 15.3818 23.9136 15.1741 23.7604 15.0209C23.6073 14.8678 23.3996 14.7816 23.183 14.7814ZM23.25 15.5984V16.0749H13.1055V15.5984C13.1057 15.5807 13.1129 15.5638 13.1254 15.5513C13.1379 15.5387 13.1548 15.5316 13.1725 15.5314H23.183C23.2007 15.5316 23.2176 15.5387 23.2301 15.5513C23.2426 15.5638 23.2498 15.5807 23.25 15.5984ZM23.25 18.7185C23.2498 18.7362 23.2426 18.7532 23.2301 18.7657C23.2176 18.7782 23.2007 18.7853 23.183 18.7856H20.5298C20.499 18.6127 20.4084 18.4561 20.2738 18.3432C20.1392 18.2303 19.9693 18.1683 19.7936 18.168H16.5621C16.3865 18.1684 16.2166 18.2304 16.0821 18.3433C15.9475 18.4562 15.857 18.6127 15.8261 18.7856H13.1725C13.1548 18.7853 13.1379 18.7782 13.1254 18.7657C13.1129 18.7532 13.1057 18.7362 13.1055 18.7185V16.8248H23.25V18.7185ZM19.7934 19.8711L16.5638 19.8727L16.5621 18.918L19.7918 18.9164L19.7934 19.8711ZM16.7364 14.0906C16.7373 14.0248 16.7638 13.962 16.8103 13.9155C16.8568 13.8689 16.9196 13.8424 16.9854 13.8416H19.3701C19.4359 13.8424 19.4987 13.8689 19.5452 13.9155C19.5917 13.962 19.6183 14.0248 19.6191 14.0906V14.7816H16.7363L16.7364 14.0906ZM13.2173 8.34946C13.2171 8.47479 13.1672 8.59493 13.0786 8.68355C12.9899 8.77217 12.8698 8.82203 12.7445 8.8222H12.1756C12.1866 8.69779 12.1925 8.57198 12.1925 8.44476V6.55457C12.1972 6.55457 12.2018 6.55509 12.2065 6.55509C12.3705 6.55492 12.5335 6.52883 12.6893 6.47779C12.7076 6.48071 12.726 6.48228 12.7445 6.48248C12.8698 6.48265 12.99 6.53251 13.0786 6.62113C13.1672 6.70975 13.2171 6.82989 13.2173 6.95521L13.2173 8.34946ZM3.7539 2.68143C4.07986 1.90134 4.7626 1.42303 5.90241 1.17614L5.91235 1.17384C7.23415 0.851082 8.6142 0.851082 9.936 1.17384L9.94594 1.17614C11.0858 1.42303 11.7685 1.90134 12.0945 2.68143C12.402 3.41737 12.389 4.37662 12.3753 5.3924C12.3736 5.52229 12.3718 5.6549 12.3706 5.78859C12.2115 5.82221 12.0459 5.8059 11.8964 5.74188C11.7469 5.67787 11.6208 5.56928 11.5353 5.43093C11.528 5.07801 11.5247 4.72711 11.5256 4.38656C11.5258 4.30822 11.5015 4.23178 11.456 4.16798C11.4105 4.10418 11.3462 4.05622 11.2721 4.03082C11.1962 4.00481 11.1117 3.98315 11.0223 3.96023C10.5413 3.8369 9.81436 3.65053 9.26307 2.50218C9.23737 2.44866 9.19933 2.402 9.15207 2.36605C9.10482 2.3301 9.04971 2.30589 8.99127 2.2954C8.93283 2.28491 8.87274 2.28844 8.81593 2.30572C8.75912 2.32299 8.70723 2.3535 8.66452 2.39475C8.15327 2.88681 7.53351 3.25182 6.85525 3.46031C6.17698 3.66881 5.45921 3.71495 4.75983 3.59503C4.70567 3.58565 4.65011 3.5883 4.59708 3.60278C4.54405 3.61726 4.49486 3.64323 4.45298 3.67883C4.4111 3.71443 4.37756 3.75881 4.35474 3.80882C4.33191 3.85882 4.32036 3.91323 4.3209 3.9682C4.32558 4.45345 4.32291 4.94507 4.31283 5.43093C4.22734 5.56928 4.10123 5.67787 3.95172 5.74188C3.80221 5.8059 3.63659 5.82221 3.47747 5.78859C3.4764 5.6549 3.47457 5.52229 3.47279 5.3924C3.45938 4.37662 3.44644 3.41714 3.7539 2.68143ZM3.06015 8.82206C2.93487 8.82185 2.81478 8.77199 2.72619 8.68341C2.6376 8.59483 2.58773 8.47474 2.5875 8.34946V6.95503C2.58769 6.82974 2.63753 6.70963 2.7261 6.62103C2.81468 6.53242 2.93476 6.48253 3.06005 6.48229C3.0878 6.48222 3.11545 6.47907 3.1425 6.47292C3.30783 6.52877 3.48138 6.55644 3.65588 6.55476V8.44476C3.65588 8.57198 3.66183 8.69789 3.67275 8.8222L3.06015 8.82206ZM4.40597 8.44462V6.35151C4.67152 6.19899 4.88597 5.97126 5.02229 5.69704C5.04651 5.64796 5.05971 5.59417 5.06096 5.53945C5.06958 5.15873 5.07375 4.77407 5.07338 4.39101C6.42201 4.50593 7.76335 4.09924 8.82108 3.25471C9.47147 4.29975 10.2847 4.54378 10.7758 4.67109C10.7769 4.95665 10.7808 5.24765 10.7874 5.5394C10.7886 5.59411 10.8018 5.64788 10.8261 5.69695C10.9624 5.97122 11.1769 6.19898 11.4425 6.35151V8.44476C11.443 9.0936 11.2639 9.72992 10.9251 10.2833C10.5863 10.8366 10.101 11.2854 9.52288 11.58C8.94476 11.8746 8.2964 12.0034 7.64958 11.9522C7.00277 11.9011 6.38273 11.6719 5.85811 11.2901C5.84036 11.2742 5.82113 11.2601 5.80069 11.2479C5.36737 10.9202 5.0159 10.4966 4.77389 10.0102C4.53187 9.52386 4.40591 8.98801 4.40588 8.44476L4.40597 8.44462ZM7.92427 12.7129C8.55242 12.7136 9.17289 12.5748 9.74086 12.3065C9.76463 12.6299 9.79177 12.9599 9.82299 13.3052C9.82411 13.3176 9.82585 13.3298 9.82815 13.3418L8.91661 14.9206H6.88796L5.87077 13.1589C5.89247 12.9066 5.9161 12.5936 5.94108 12.2234C6.55236 12.5458 7.23313 12.7138 7.92418 12.7131L7.92427 12.7129ZM7.13916 15.6707H8.6655L8.70164 15.9087H7.10321L7.13916 15.6707ZM0.751927 20.2869L0.772973 16.133C1.16855 15.2194 1.983 14.5854 3.26021 14.1965C4.10358 13.9692 4.76424 13.7765 5.27321 13.6239L6.396 15.5686L5.775 19.659C5.7613 19.7492 5.78096 19.8414 5.83032 19.9181L6.06746 20.2869H0.751927ZM7.90224 21.7534L6.53785 19.6316L6.98911 16.6588H8.81541L9.26668 19.6316L7.90224 21.7534ZM9.73693 20.2869L9.97411 19.9181C10.0234 19.8413 10.0431 19.7492 10.0294 19.659L9.4081 15.566C9.41279 15.5591 9.41776 15.5527 9.42216 15.5453L10.5315 13.6239C11.0396 13.7763 11.6998 13.9688 12.5445 14.1965C13.0041 14.3305 13.4431 14.5273 13.8489 14.7814H13.1725C12.9559 14.7816 12.7483 14.8678 12.5951 15.0209C12.4419 15.1741 12.3558 15.3818 12.3555 15.5984V18.7185C12.3557 18.8781 12.4026 19.0341 12.4904 19.1674C12.5782 19.3007 12.703 19.4053 12.8496 19.4685V20.2867L9.73693 20.2869ZM22.677 23.0692H13.6785C13.6576 23.0689 13.6377 23.0605 13.623 23.0457C13.6082 23.031 13.5998 23.011 13.5996 22.9902V19.5355H15.8137V19.8726C15.8139 20.071 15.8928 20.2613 16.0331 20.4016C16.1734 20.5419 16.3636 20.6208 16.5621 20.621H19.7934C19.9919 20.6208 20.1821 20.5419 20.3224 20.4016C20.4627 20.2613 20.5416 20.071 20.5418 19.8726V19.5356H22.7559V22.9903C22.7556 23.0111 22.7472 23.031 22.7325 23.0457C22.7178 23.0605 22.6978 23.0689 22.677 23.0692ZM22.3422 22.3132C22.3422 22.4126 22.3027 22.508 22.2323 22.5783C22.162 22.6486 22.0666 22.6882 21.9672 22.6882H20.1341C20.0346 22.6882 19.9392 22.6486 19.8689 22.5783C19.7986 22.508 19.7591 22.4126 19.7591 22.3132C19.7591 22.2137 19.7986 22.1183 19.8689 22.048C19.9392 21.9777 20.0346 21.9382 20.1341 21.9382H21.9672C22.0666 21.9382 22.162 21.9777 22.2323 22.048C22.3027 22.1183 22.3422 22.2137 22.3422 22.3132Z" fill="#666666"/>
</g>
<defs>
<clipPath id="clip0_1_13921">
<rect width="24" height="24" fill="white"/>
</clipPath>
</defs>
</svg>
