<svg width="16" height="22" viewBox="0 0 16 22" fill="none" xmlns="http://www.w3.org/2000/svg">
<path d="M0.762982 20.686C0.856482 21.435 1.49648 22 2.25148 22H13.486C14.241 22 14.881 21.435 14.9745 20.686L15.7245 14.686C15.7775 14.259 15.6455 13.83 15.3605 13.5075C15.2225 13.351 15.054 13.2285 14.869 13.142V11.236C14.8725 10.2355 14.279 9.347 13.369 8.941C13.391 7.234 13.3945 5.342 12.854 3.7085C12.1875 1.4905 10.1845 0 7.86848 0C5.55248 0 3.54948 1.4905 2.88398 3.7085C2.34348 5.3395 2.34398 7.2345 2.36848 8.941L2.25048 9C1.39798 9.426 0.868482 10.283 0.868482 11.236V13.142C0.287982 13.401 -0.074518 14.055 0.0129821 14.686L0.762982 20.686ZM12.3685 7.22V8.4405L11.8125 8.1625C12.0925 7.654 12.277 7.086 12.3415 6.4825C12.358 6.728 12.3685 6.974 12.3685 7.22ZM3.84198 3.996C5.00498 0.0314999 10.7325 0.0319998 11.8955 3.996C12.0635 4.5565 12.184 5.1285 12.2625 5.706C12.171 5.584 12.0325 5.5 11.8685 5.5H6.61848L5.26848 3.7C5.06148 3.4055 4.57248 3.4495 4.42148 3.7765L3.47998 5.6595C3.55898 5.0975 3.67798 4.541 3.84198 3.996ZM7.86848 9.5C5.97698 9.5 4.43098 7.9915 4.37048 6.1145L4.95398 4.9475L5.96848 6.3C6.06248 6.426 6.21098 6.5 6.36848 6.5H11.333C11.0895 8.194 9.62898 9.5 7.86848 9.5ZM9.49898 10.1895C8.75348 11.2535 6.98298 11.253 6.23748 10.1895C7.23848 10.5995 8.49798 10.5995 9.49898 10.1895ZM3.36848 7.22C3.36848 6.9735 3.37898 6.728 3.39548 6.4825C3.45998 7.086 3.64448 7.654 3.92448 8.1625L3.36848 8.441V7.22ZM1.86848 11.236C1.86848 10.664 2.18598 10.15 2.69748 9.8945L4.51198 8.987C4.86848 9 4.89848 9.681 4.89848 9.681C5.23998 11.0465 6.46148 12 7.86848 12C9.27598 12 10.4975 11.0465 10.838 9.6825C10.838 9.6825 10.8685 9 11.2245 8.9875L13.039 9.895C13.5505 10.15 13.8685 10.6645 13.8685 11.236V13H1.86848V11.236ZM1.12648 14.169C1.22248 14.06 1.35598 14 1.50148 14H14.236C14.3815 14 14.515 14.06 14.611 14.169C14.707 14.278 14.75 14.4175 14.732 14.562L13.982 20.562C13.9505 20.812 13.737 21 13.4855 21H2.25148C1.99998 21 1.78648 20.812 1.75548 20.562L1.00548 14.562C0.986982 14.4175 1.02998 14.278 1.12648 14.169Z" fill="white"/>
<path d="M7.86808 19C9.84608 18.948 9.84558 16.0515 7.86808 16C5.89008 16.052 5.89058 18.9485 7.86808 19ZM7.86808 17C8.52158 17.0035 8.52158 17.9965 7.86808 18C7.21458 17.9965 7.21458 17.0035 7.86808 17Z" fill="white"/>
</svg>
