<svg width="18" height="18" viewBox="0 0 18 18" fill="none" xmlns="http://www.w3.org/2000/svg">
<path d="M6.08064 13.272C5.54832 12.674 5.11831 12.089 4.70294 11.5224C4.32338 11.0073 3.99427 10.4568 3.72016 9.8786C3.5486 9.52777 3.47266 9.17252 3.84428 8.94412C4.90929 8.28962 5.12754 8.91456 5.70641 9.63968C6.04953 10.0693 6.5555 10.7779 6.87253 11.2255C7.17535 11.653 7.54452 10.8815 7.69189 10.6637C8.21569 9.88999 9.57708 7.99571 10.1397 7.29551C10.6738 6.63081 12.3977 4.76865 12.719 4.47247C12.9926 4.22027 13.5701 3.66711 13.9585 3.97226C14.3666 4.29289 14.566 4.90236 14.2791 5.29864C13.7795 5.98854 12.9947 6.64484 12.4517 7.30176C11.3526 8.63151 10.3119 10.0649 9.31299 11.492C8.97355 11.977 8.49697 12.7893 8.20109 13.3153C7.64762 14.2992 7.16148 14.4865 6.08064 13.272Z" fill="#666666"/>
</svg>
