<svg width="24" height="24" viewBox="0 0 24 24" fill="none" xmlns="http://www.w3.org/2000/svg">
<path d="M23.25 15C22.836 15 22.5 15.336 22.5 15.75V21H1.5V12H9.75C10.164 12 10.5 11.664 10.5 11.25C10.5 10.836 10.164 10.5 9.75 10.5H1.5V7.5H9.75C10.164 7.5 10.5 7.164 10.5 6.75C10.5 6.336 10.164 6 9.75 6H1.5C0.672 6 0 6.672 0 7.5V21C0 21.828 0.672 22.5 1.5 22.5H22.5C23.328 22.5 24 21.828 24 21V15.75C24 15.336 23.664 15 23.25 15Z" fill="#666666"/>
<path d="M6.75 15H3.75C3.336 15 3 15.336 3 15.75C3 16.164 3.336 16.5 3.75 16.5H6.75C7.164 16.5 7.5 16.164 7.5 15.75C7.5 15.336 7.164 15 6.75 15Z" fill="#666666"/>
<path d="M23.5455 3.80962L18.2955 1.55962C18.105 1.48012 17.8935 1.48012 17.703 1.55962L12.453 3.80962C12.1785 3.92812 12 4.19963 12 4.49962V7.49963C12 11.6261 13.5255 14.0381 17.6265 16.4006C17.742 16.4666 17.871 16.4996 18 16.4996C18.129 16.4996 18.258 16.4666 18.3735 16.4006C22.4745 14.0441 24 11.6321 24 7.49963V4.49962C24 4.19963 23.8215 3.92812 23.5455 3.80962ZM22.5 7.49963C22.5 10.9631 21.354 12.8696 18 14.8796C14.646 12.8651 13.5 10.9586 13.5 7.49963V4.99463L18 3.06562L22.5 4.99463V7.49963Z" fill="#666666"/>
<path d="M20.719 6.16255C20.3965 5.90755 19.9255 5.95705 19.6645 6.27955L17.3065 9.22855L16.3735 7.83355C16.141 7.48855 15.6745 7.39705 15.334 7.62505C14.9905 7.85455 14.896 8.32105 15.1255 8.66455L16.6255 10.9146C16.759 11.1141 16.978 11.2371 17.218 11.2491C17.2285 11.2491 17.2405 11.2491 17.2495 11.2491C17.476 11.2491 17.692 11.1471 17.836 10.9671L20.836 7.21705C21.094 6.89305 21.043 6.42205 20.719 6.16255Z" fill="#666666"/>
</svg>
