<svg width="20" height="20" viewBox="0 0 20 20" fill="none" xmlns="http://www.w3.org/2000/svg">
<path d="M15.832 5.83301C15.611 5.83301 15.3991 5.92081 15.2428 6.07709C15.0865 6.23337 14.9987 6.44533 14.9987 6.66634V15.9922C14.9748 16.4136 14.7853 16.8085 14.4716 17.0908C14.1579 17.3732 13.7453 17.5201 13.3237 17.4997H6.6737C6.25211 17.5201 5.83952 17.3732 5.52579 17.0908C5.21205 16.8085 5.0226 16.4136 4.9987 15.9922V6.66634C4.9987 6.44533 4.9109 6.23337 4.75462 6.07709C4.59834 5.92081 4.38638 5.83301 4.16536 5.83301C3.94435 5.83301 3.73239 5.92081 3.57611 6.07709C3.41983 6.23337 3.33203 6.44533 3.33203 6.66634V15.9922C3.35582 16.8557 3.72085 17.6746 4.34718 18.2695C4.97351 18.8645 5.81009 19.187 6.6737 19.1663H13.3237C14.1873 19.187 15.0239 18.8645 15.6502 18.2695C16.2765 17.6746 16.6416 16.8557 16.6654 15.9922V6.66634C16.6654 6.44533 16.5776 6.23337 16.4213 6.07709C16.265 5.92081 16.053 5.83301 15.832 5.83301Z" fill="#666666"/>
<path d="M16.6667 3.3335H13.3333V1.66683C13.3333 1.44582 13.2455 1.23385 13.0893 1.07757C12.933 0.921293 12.721 0.833496 12.5 0.833496H7.5C7.27899 0.833496 7.06702 0.921293 6.91074 1.07757C6.75446 1.23385 6.66667 1.44582 6.66667 1.66683V3.3335H3.33333C3.11232 3.3335 2.90036 3.42129 2.74408 3.57757C2.5878 3.73385 2.5 3.94582 2.5 4.16683C2.5 4.38784 2.5878 4.5998 2.74408 4.75609C2.90036 4.91237 3.11232 5.00016 3.33333 5.00016H16.6667C16.8877 5.00016 17.0996 4.91237 17.2559 4.75609C17.4122 4.5998 17.5 4.38784 17.5 4.16683C17.5 3.94582 17.4122 3.73385 17.2559 3.57757C17.0996 3.42129 16.8877 3.3335 16.6667 3.3335ZM8.33333 3.3335V2.50016H11.6667V3.3335H8.33333Z" fill="#666666"/>
<path d="M9.16667 14.1667V8.33333C9.16667 8.11232 9.07887 7.90036 8.92259 7.74408C8.76631 7.5878 8.55435 7.5 8.33333 7.5C8.11232 7.5 7.90036 7.5878 7.74408 7.74408C7.5878 7.90036 7.5 8.11232 7.5 8.33333V14.1667C7.5 14.3877 7.5878 14.5996 7.74408 14.7559C7.90036 14.9122 8.11232 15 8.33333 15C8.55435 15 8.76631 14.9122 8.92259 14.7559C9.07887 14.5996 9.16667 14.3877 9.16667 14.1667Z" fill="#666666"/>
<path d="M12.4987 14.1667V8.33333C12.4987 8.11232 12.4109 7.90036 12.2546 7.74408C12.0983 7.5878 11.8864 7.5 11.6654 7.5C11.4444 7.5 11.2324 7.5878 11.0761 7.74408C10.9198 7.90036 10.832 8.11232 10.832 8.33333V14.1667C10.832 14.3877 10.9198 14.5996 11.0761 14.7559C11.2324 14.9122 11.4444 15 11.6654 15C11.8864 15 12.0983 14.9122 12.2546 14.7559C12.4109 14.5996 12.4987 14.3877 12.4987 14.1667Z" fill="#666666"/>
</svg>
