<svg width="18" height="18" viewBox="0 0 18 18" fill="none" xmlns="http://www.w3.org/2000/svg">
<g clip-path="url(#clip0_1_8435)">
<mask id="mask0_1_8435" style="mask-type:luminance" maskUnits="userSpaceOnUse" x="0" y="0" width="18" height="18">
<path d="M0 0H18V18H0V0Z" fill="white"/>
</mask>
<g mask="url(#mask0_1_8435)">
<path fill-rule="evenodd" clip-rule="evenodd" d="M6.71718 1.28931e-07H11.2829C12.3051 -5.94607e-06 13.1181 -1.07735e-05 13.774 0.0535818C14.4458 0.108462 15.0185 0.223258 15.5429 0.490471C16.3897 0.9219 17.0781 1.61032 17.5095 2.45705C17.7767 2.98148 17.8916 3.55423 17.9464 4.22593C18 4.88187 18 5.69488 18 6.71716V11.2829C18 12.3051 18 13.1181 17.9464 13.774C17.8916 14.4458 17.7767 15.0185 17.5095 15.5429C17.0781 16.3897 16.3897 17.0781 15.5429 17.5095C15.0185 17.7767 14.4458 17.8916 13.774 17.9464C13.1181 18 12.3051 18 11.2829 18H6.71716C5.69488 18 4.88187 18 4.22593 17.9464C3.55423 17.8916 2.98148 17.7767 2.45705 17.5095C1.61032 17.0781 0.9219 16.3897 0.490471 15.5429C0.223258 15.0185 0.108462 14.4458 0.0535818 13.774C-1.07735e-05 13.1181 -5.94607e-06 12.3051 1.28931e-07 11.2829V6.71718C-5.94607e-06 5.6949 -1.07735e-05 4.88188 0.0535818 4.22593C0.108462 3.55423 0.223258 2.98148 0.490471 2.45705C0.9219 1.61031 1.61031 0.9219 2.45705 0.490471C2.98148 0.223258 3.55423 0.108462 4.22593 0.0535818C4.88188 -1.07735e-05 5.6949 -5.94607e-06 6.71718 1.28931e-07ZM4.34808 1.5486C3.76914 1.5959 3.41576 1.68547 3.13803 1.82698C2.57354 2.1146 2.1146 2.57354 1.82698 3.13803C1.68547 3.41576 1.5959 3.76914 1.5486 4.34808C1.50058 4.93578 1.5 5.68753 1.5 6.75V11.25C1.5 12.3125 1.50058 13.0642 1.5486 13.652C1.5959 14.2309 1.68547 14.5843 1.82698 14.862C2.1146 15.4264 2.57354 15.8854 3.13803 16.173C3.41576 16.3145 3.76914 16.4041 4.34808 16.4514C4.93578 16.4994 5.68753 16.5 6.75 16.5H11.25C12.3125 16.5 13.0642 16.4994 13.652 16.4514C14.2309 16.4041 14.5843 16.3145 14.862 16.173C15.4264 15.8854 15.8854 15.4264 16.173 14.862C16.3145 14.5843 16.4041 14.2309 16.4514 13.652C16.4994 13.0642 16.5 12.3125 16.5 11.25V6.75C16.5 5.68753 16.4994 4.93578 16.4514 4.34808C16.4041 3.76914 16.3145 3.41576 16.173 3.13803C15.8854 2.57354 15.4264 2.1146 14.862 1.82698C14.5843 1.68547 14.2309 1.5959 13.652 1.5486C13.0642 1.50058 12.3125 1.5 11.25 1.5H6.75C5.68753 1.5 4.93578 1.50058 4.34808 1.5486ZM10.5 5.25C10.0858 5.25 9.75 4.91422 9.75 4.5C9.75 4.08579 10.0858 3.75 10.5 3.75H13.5C13.9142 3.75 14.25 4.08579 14.25 4.5V7.5C14.25 7.91423 13.9142 8.25 13.5 8.25C13.0858 8.25 12.75 7.91423 12.75 7.5V6.31066L11.0303 8.03032C10.7374 8.3232 10.2626 8.3232 9.96968 8.03032C9.6768 7.73745 9.6768 7.26256 9.96968 6.96967L11.6894 5.25H10.5ZM3.75 10.5C3.75 10.0858 4.08579 9.75 4.5 9.75C4.91422 9.75 5.25 10.0858 5.25 10.5V11.6894L6.96967 9.96968C7.26256 9.6768 7.73745 9.6768 8.03032 9.96968C8.3232 10.2626 8.3232 10.7374 8.03032 11.0303L6.31066 12.75H7.5C7.91423 12.75 8.25 13.0858 8.25 13.5C8.25 13.9142 7.91423 14.25 7.5 14.25H4.5C4.30108 14.25 4.11032 14.1709 3.96967 14.0303C3.82902 13.8897 3.75 13.6989 3.75 13.5V10.5Z" fill="#01237C"/>
</g>
</g>
<defs>
<clipPath id="clip0_1_8435">
<rect width="18" height="18" fill="white"/>
</clipPath>
</defs>
</svg>
