<svg width="18" height="18" viewBox="0 0 18 18" fill="none" xmlns="http://www.w3.org/2000/svg">
<path d="M17.8856 8.65178C17.7248 8.43181 13.8934 3.26562 8.99991 3.26562C4.10647 3.26562 0.274852 8.43181 0.114223 8.65157C-0.0380743 8.86026 -0.0380743 9.1433 0.114223 9.35199C0.274852 9.57197 4.10647 14.7382 8.99991 14.7382C13.8934 14.7382 17.7248 9.57193 17.8856 9.35217C18.0381 9.14352 18.0381 8.86026 17.8856 8.65178ZM8.99991 13.5513C5.39537 13.5513 2.27345 10.1224 1.3493 9.00148C2.27226 7.87954 5.38764 4.45243 8.99991 4.45243C12.6043 4.45243 15.726 7.88074 16.6505 9.00229C15.7276 10.1242 12.6122 13.5513 8.99991 13.5513Z" fill="#01237C"/>
<path d="M8.99796 5.4375C7.03476 5.4375 5.4375 7.03476 5.4375 8.99796C5.4375 10.9612 7.03476 12.5584 8.99796 12.5584C10.9612 12.5584 12.5584 10.9612 12.5584 8.99796C12.5584 7.03476 10.9612 5.4375 8.99796 5.4375ZM8.99796 11.3716C7.68909 11.3716 6.62434 10.3068 6.62434 8.99796C6.62434 7.68912 7.68912 6.62434 8.99796 6.62434C10.3068 6.62434 11.3716 7.68912 11.3716 8.99796C11.3716 10.3068 10.3068 11.3716 8.99796 11.3716Z" fill="#01237C"/>
</svg>
