<svg width="24" height="24" viewBox="0 0 24 24" fill="none" xmlns="http://www.w3.org/2000/svg">
<path d="M9.57932 12.4844C9.54633 12.3193 8.41 6.63766 8.37396 6.45762C8.31767 6.17593 8.07029 5.97314 7.78301 5.97314H6.57766C6.29038 5.97314 6.043 6.17593 5.98671 6.45762C5.95011 6.64071 4.81261 12.3282 4.78135 12.4844C4.71606 12.8108 4.92776 13.1283 5.25414 13.1936C5.58051 13.2588 5.89804 13.0471 5.96329 12.7208L6.34852 10.7946H8.01215L8.39739 12.7208C8.46268 13.0473 8.78033 13.2589 9.10654 13.1936C9.43291 13.1283 9.64461 12.8108 9.57932 12.4844ZM6.58959 9.58922L7.07173 7.1785H7.28894L7.77108 9.58922H6.58959Z" fill="#333333"/>
<path d="M19.2327 10.7947H17.4247V10.192C17.4247 9.85919 17.1548 9.58936 16.822 9.58936C16.4891 9.58936 16.2193 9.85919 16.2193 10.192V10.7947H14.4113C14.0784 10.7947 13.8086 11.0646 13.8086 11.3974C13.8086 11.7302 14.0784 12.0001 14.4113 12.0001H14.5571C14.9005 13.1095 15.4175 13.961 15.9865 14.6434C15.5234 15.067 15.0549 15.4143 14.6375 15.7482C14.3776 15.9561 14.3354 16.3354 14.5434 16.5953C14.7514 16.8553 15.1307 16.8972 15.3905 16.6894C15.8102 16.3536 16.3132 15.9805 16.822 15.5136C17.3311 15.9808 17.8351 16.3546 18.2535 16.6894C18.5134 16.8974 18.8927 16.8552 19.1006 16.5953C19.3085 16.3354 19.2664 15.9561 19.0065 15.7482C18.5902 15.4151 18.121 15.0674 17.6575 14.6434C18.2264 13.961 18.7434 13.1095 19.0869 12.0001H19.2327C19.5655 12.0001 19.8354 11.7302 19.8354 11.3974C19.8354 11.0646 19.5655 10.7947 19.2327 10.7947ZM16.822 13.7577C16.4373 13.2747 16.0912 12.6983 15.8303 11.9961H17.8137C17.5528 12.6983 17.2067 13.2747 16.822 13.7577Z" fill="#333333"/>
<path d="M20.4782 5.3706H11.7836L11.5252 3.29811C11.4123 2.39522 10.6411 1.71436 9.73115 1.71436H3.52288C2.52593 1.71436 1.71484 2.52544 1.71484 3.52239V16.8215C1.71484 17.8184 2.52593 18.6295 3.52288 18.6295H8.60478L8.85984 20.702C8.9725 21.6031 9.74377 22.2858 10.6539 22.2858H20.4782C21.4752 22.2858 22.2863 21.4747 22.2863 20.4777V7.17864C22.2863 6.18169 21.4752 5.3706 20.4782 5.3706ZM3.52288 17.4242C3.19056 17.4242 2.9202 17.1538 2.9202 16.8215V3.52239C2.9202 3.19007 3.19056 2.91971 3.52288 2.91971H9.73115C10.0345 2.91971 10.2916 3.14664 10.3291 3.44742C10.4165 4.14797 11.9848 16.7292 12.0714 17.4242H3.52288ZM10.0207 20.2668L9.81922 18.6295H11.4362L10.0207 20.2668ZM21.0809 20.4777C21.0809 20.8101 20.8106 21.0804 20.4782 21.0804H10.9107L13.205 18.4265C13.3225 18.294 13.3751 18.1182 13.3508 17.9434L11.9338 6.57596H20.4782C20.8106 6.57596 21.0809 6.84632 21.0809 7.17864V20.4777Z" fill="#333333"/>
</svg>
