<svg width="24" height="24" viewBox="0 0 24 24" fill="none" xmlns="http://www.w3.org/2000/svg">
<path d="M9.80143 10.3066H5.14955C4.81671 10.3066 4.54688 10.5765 4.54688 10.9093C4.54688 11.2422 4.81671 11.512 5.14955 11.512H9.80139C10.1342 11.512 10.4041 11.2422 10.4041 10.9093C10.4041 10.5765 10.1343 10.3066 9.80143 10.3066Z" fill="#666666"/>
<path d="M9.80143 7.89648H5.14955C4.81671 7.89648 4.54688 8.16632 4.54688 8.49916C4.54688 8.832 4.81671 9.10184 5.14955 9.10184H9.80139C10.1342 9.10184 10.4041 8.832 10.4041 8.49916C10.4041 8.16632 10.1343 7.89648 9.80143 7.89648Z" fill="#666666"/>
<path d="M5.14955 6.68973H14.1375C14.4703 6.68973 14.7401 6.41989 14.7401 6.08705C14.7401 5.75421 14.4703 5.48438 14.1375 5.48438H5.14955C4.81671 5.48438 4.54688 5.75421 4.54688 6.08705C4.54688 6.41989 4.81671 6.68973 5.14955 6.68973Z" fill="#666666"/>
<path d="M9.80143 12.7012H5.14955C4.81671 12.7012 4.54688 12.971 4.54688 13.3039C4.54688 13.6367 4.81671 13.9065 5.14955 13.9065H9.80139C10.1342 13.9065 10.4041 13.6367 10.4041 13.3039C10.4041 12.971 10.1343 12.7012 9.80143 12.7012Z" fill="#666666"/>
<path d="M9.80143 14.7109H5.14955C4.81671 14.7109 4.54688 14.9808 4.54688 15.3136C4.54688 15.6465 4.81671 15.9163 5.14955 15.9163H9.80139C10.1342 15.9163 10.4041 15.6465 10.4041 15.3136C10.4041 14.9808 10.1343 14.7109 9.80143 14.7109Z" fill="#666666"/>
<path d="M9.80143 17.1211H5.14955C4.81671 17.1211 4.54688 17.3909 4.54688 17.7238C4.54688 18.0566 4.81671 18.3265 5.14955 18.3265H9.80139C10.1342 18.3265 10.4041 18.0566 10.4041 17.7238C10.4041 17.3909 10.1343 17.1211 9.80143 17.1211Z" fill="#666666"/>
<path d="M22.2649 12.3111C22.2624 11.9798 21.993 11.713 21.6623 11.713C21.6562 11.7131 21.6497 11.7131 21.6435 11.7131C20.906 11.7131 20.2288 11.2904 19.9155 10.633C19.8155 10.4231 19.6037 10.2896 19.3715 10.2896C19.37 10.2896 19.3685 10.2896 19.3671 10.2896L17.6099 10.3026V2.71931C17.6099 2.16545 17.1593 1.71484 16.6054 1.71484H2.71931C2.16545 1.71484 1.71484 2.16545 1.71484 2.71931V21.2817C1.71484 21.8356 2.16545 22.2862 2.71931 22.2862L17.0419 22.2862C17.0546 22.2862 17.097 22.2833 17.1024 22.2826C17.1873 22.2737 17.2707 22.2471 17.3466 22.2021L18.7151 21.3921C19.8098 20.744 20.7189 19.8206 21.3442 18.7217C21.9699 17.6217 22.2957 16.3733 22.2861 15.1116L22.2649 12.3111ZM2.9202 2.9202H16.4045V10.3115L14.5397 10.3253C14.3056 10.327 14.0937 10.4641 13.9963 10.6769C13.691 11.343 13.0138 11.7769 12.2709 11.7824C12.111 11.7836 11.9582 11.8482 11.846 11.9621C11.7339 12.076 11.6715 12.2298 11.6727 12.3896L11.694 15.1901C11.7035 16.4517 12.0481 17.6951 12.6905 18.7858C13.2264 19.6954 13.9587 20.479 14.8284 21.0809L2.9202 21.0808V2.9202ZM18.1011 20.3548L17.0344 20.9862L15.9582 20.3706C14.0875 19.3004 12.9154 17.3119 12.8993 15.1809L12.8821 12.9245C13.7161 12.7539 14.4521 12.2485 14.9037 11.528L19.0209 11.4976C19.4835 12.2115 20.2269 12.706 21.0636 12.8641L21.0807 15.1207C21.0969 17.2516 19.9551 19.2572 18.1011 20.3548Z" fill="#666666"/>
<path d="M18.3174 14.5238L16.6087 16.3407L16.0096 15.6047C15.7994 15.3466 15.4198 15.3077 15.1617 15.5179C14.9035 15.728 14.8646 16.1076 15.0748 16.3658L16.1086 17.6356C16.2182 17.7704 16.3808 17.8512 16.5544 17.8574C16.5617 17.8577 16.5688 17.8578 16.576 17.8578C16.7419 17.8578 16.9009 17.7893 17.015 17.668L19.1955 15.3495C19.4235 15.1071 19.4118 14.7256 19.1694 14.4976C18.9268 14.2696 18.5455 14.2813 18.3174 14.5238Z" fill="#666666"/>
</svg>
