<svg width="18" height="18" viewBox="0 0 18 18" fill="none" xmlns="http://www.w3.org/2000/svg">
<path fill-rule="evenodd" clip-rule="evenodd" d="M9.43147 1.41616C10.3851 0.497194 11.6623 -0.0113037 12.988 0.00019071C14.3137 0.0116851 15.5819 0.542251 16.5193 1.47762C17.4568 2.41298 17.9885 3.6783 18 5.00106C18.0116 6.32381 17.5019 7.59817 16.5809 8.54965L16.5706 8.56007L14.0427 11.0824C13.5301 11.594 12.9132 11.9897 12.2339 12.2425C11.5546 12.4953 10.8287 12.5995 10.1056 12.5478C9.38239 12.4961 8.67881 12.2899 8.04254 11.943C7.40628 11.5962 6.85222 11.1168 6.41794 10.5376C6.13918 10.1657 6.21531 9.63878 6.58799 9.36063C6.96067 9.08248 7.48878 9.15845 7.76755 9.5303C8.05707 9.91649 8.42644 10.236 8.85061 10.4673C9.27479 10.6985 9.74384 10.836 10.226 10.8704C10.7081 10.9049 11.192 10.8355 11.6449 10.6669C12.0977 10.4984 12.509 10.2346 12.8507 9.89353L12.8508 9.89342L15.3734 7.37643C15.9844 6.74264 16.3224 5.89521 16.3147 5.01567C16.307 4.13383 15.9525 3.29029 15.3276 2.66671C14.7026 2.04313 13.8572 1.68942 12.9733 1.68176C12.0915 1.67411 11.2418 2.01162 10.6065 2.62175L9.1616 4.05502C8.83155 4.38242 8.29799 4.38087 7.96985 4.05156C7.64172 3.72224 7.64328 3.18987 7.97333 2.86247L9.42277 1.42467L9.43147 1.41616Z" fill="#74788D"/>
<path fill-rule="evenodd" clip-rule="evenodd" d="M5.76632 5.75566C6.44563 5.50282 7.17149 5.39871 7.89467 5.45039C8.61784 5.50207 9.32142 5.70832 9.95769 6.05516C10.5939 6.40201 11.148 6.88133 11.5823 7.46061C11.8611 7.83246 11.7849 8.35939 11.4122 8.63754C11.0396 8.91569 10.5115 8.83972 10.2327 8.46787C9.94317 8.08168 9.57379 7.76214 9.14962 7.53091C8.72544 7.29968 8.25639 7.16218 7.77427 7.12772C7.29215 7.09327 6.80825 7.16268 6.35538 7.33124C5.9025 7.49979 5.49126 7.76356 5.14954 8.10464L2.62681 10.6217C2.01583 11.2555 1.67786 12.103 1.68552 12.9825C1.6932 13.8643 2.0477 14.7079 2.67267 15.3315C3.29764 15.955 4.14308 16.3087 5.02689 16.3164C5.90838 16.3241 6.75771 15.9868 7.39291 15.3772L8.82846 13.9449C9.15756 13.6165 9.69112 13.6165 10.0202 13.9449C10.3493 14.2732 10.3493 14.8056 10.0202 15.134L8.57921 16.5718L8.56876 16.582C7.61516 17.501 6.33795 18.0095 5.01224 17.998C3.68653 17.9865 2.41838 17.4559 1.48092 16.5206C0.543464 15.5852 0.0117112 14.3199 0.000191136 12.9971C-0.0113289 11.6744 0.498305 10.4 1.41933 9.44853L1.42959 9.4381L3.95757 6.91576C3.95754 6.9158 3.95761 6.91573 3.95757 6.91576C4.47013 6.40419 5.08707 6.00848 5.76632 5.75566Z" fill="#74788D"/>
</svg>
