<svg width="29" height="29" viewBox="0 0 29 29" fill="none" xmlns="http://www.w3.org/2000/svg">
<path fill-rule="evenodd" clip-rule="evenodd" d="M13.6667 25.3506H2.26667C2.196 25.3506 2.128 25.3213 2.07867 25.2719C2.028 25.2213 2 25.1546 2 25.0839V23.1493C2 22.0426 2.79067 21.0666 4.00933 20.2373C6.18533 18.7519 9.70667 17.8159 13.6667 17.8159C14.2187 17.8159 14.6667 17.3679 14.6667 16.8159C14.6667 16.2653 14.2187 15.8159 13.6667 15.8159C9.23733 15.8159 5.316 16.9239 2.88133 18.5839C1.024 19.8506 0 21.4599 0 23.1493V25.0839C0 25.6839 0.238667 26.2613 0.664 26.6866C1.08933 27.1106 1.66533 27.3506 2.26667 27.3506H13.6667C14.2187 27.3493 14.6667 26.9012 14.6667 26.3492C14.6667 25.7986 14.2187 25.3493 13.6667 25.3506Z" fill="#666666"/>
<path fill-rule="evenodd" clip-rule="evenodd" d="M13.6654 0C9.61736 0 6.33203 3.28533 6.33203 7.33333C6.33203 11.3813 9.61736 14.6667 13.6654 14.6667C17.7134 14.6667 20.9987 11.3813 20.9987 7.33333C20.9987 3.28533 17.7134 0 13.6654 0ZM13.6654 2C16.6094 2 18.9987 4.38933 18.9987 7.33333C18.9987 10.2773 16.6094 12.6667 13.6654 12.6667C10.7214 12.6667 8.33203 10.2773 8.33203 7.33333C8.33203 4.38933 10.7214 2 13.6654 2Z" fill="#666666"/>
<path fill-rule="evenodd" clip-rule="evenodd" d="M21.6673 16.917C19.046 16.917 16.918 19.045 16.918 21.6663C16.918 24.2877 19.046 26.417 21.6673 26.417C24.2886 26.417 26.418 24.2877 26.418 21.6663C26.418 19.045 24.2886 16.917 21.6673 16.917ZM21.6673 18.917C23.1846 18.917 24.418 20.149 24.418 21.6663C24.418 23.1837 23.1846 24.417 21.6673 24.417C20.15 24.417 18.9166 23.1837 18.9166 21.6663C18.9166 20.149 20.15 18.917 21.6673 18.917Z" fill="#666666"/>
<path fill-rule="evenodd" clip-rule="evenodd" d="M22.668 17.9163V15.667C22.668 15.115 22.22 14.667 21.668 14.667C21.116 14.667 20.668 15.115 20.668 15.667V17.9177C20.668 18.4683 21.116 18.9177 21.668 18.9177C22.22 18.9163 22.668 18.4683 22.668 17.9163Z" fill="#666666"/>
<path fill-rule="evenodd" clip-rule="evenodd" d="M25.027 19.7226L26.6176 18.1306C27.0083 17.7413 27.0083 17.1066 26.6176 16.7173C26.2283 16.3266 25.5936 16.3266 25.2043 16.7173L23.6123 18.308C23.223 18.6986 23.223 19.332 23.6123 19.7226C24.003 20.112 24.6363 20.112 25.027 19.7226Z" fill="#666666"/>
<path fill-rule="evenodd" clip-rule="evenodd" d="M25.4166 22.667H27.6673C28.2193 22.667 28.6673 22.219 28.6673 21.667C28.6673 21.115 28.2193 20.667 27.6673 20.667H25.4166C24.866 20.667 24.418 21.115 24.418 21.667C24.4166 22.219 24.866 22.667 25.4166 22.667Z" fill="#666666"/>
<path fill-rule="evenodd" clip-rule="evenodd" d="M23.6123 25.025L25.2043 26.6157C25.5936 27.0064 26.2283 27.0064 26.6176 26.6157C27.0083 26.2264 27.0083 25.5917 26.6176 25.2024L25.027 23.6104C24.6363 23.221 24.003 23.221 23.6123 23.6104C23.223 24.001 23.223 24.6344 23.6123 25.025Z" fill="#666666"/>
<path fill-rule="evenodd" clip-rule="evenodd" d="M20.668 25.416V27.6667C20.668 28.2187 21.116 28.6667 21.668 28.6667C22.22 28.6667 22.668 28.2187 22.668 27.6667V25.416C22.668 24.8653 22.22 24.4173 21.668 24.416C21.116 24.416 20.668 24.8653 20.668 25.416Z" fill="#666666"/>
<path fill-rule="evenodd" clip-rule="evenodd" d="M18.3094 23.6104L16.7188 25.2024C16.3281 25.5917 16.3281 26.2264 16.7188 26.6157C17.1081 27.0064 17.7428 27.0064 18.1321 26.6157L19.7241 25.025C20.1134 24.6344 20.1134 24.001 19.7241 23.6104C19.3334 23.221 18.7001 23.221 18.3094 23.6104Z" fill="#666666"/>
<path fill-rule="evenodd" clip-rule="evenodd" d="M17.9173 20.667H15.668C15.116 20.667 14.668 21.115 14.668 21.667C14.668 22.219 15.116 22.667 15.668 22.667H17.9173C18.4693 22.667 18.9186 22.219 18.9173 21.667C18.9173 21.115 18.4693 20.667 17.9173 20.667Z" fill="#666666"/>
<path fill-rule="evenodd" clip-rule="evenodd" d="M19.7241 18.308L18.1321 16.7173C17.7428 16.3266 17.1081 16.3266 16.7188 16.7173C16.3281 17.1066 16.3281 17.7413 16.7188 18.1306L18.3094 19.7226C18.7001 20.112 19.3334 20.112 19.7241 19.7226C20.1134 19.332 20.1134 18.6986 19.7241 18.308Z" fill="#666666"/>
</svg>
