<svg width="32" height="30" viewBox="0 0 32 30" fill="none" xmlns="http://www.w3.org/2000/svg">
<path d="M31.4306 12.3258C30.8598 12.0821 30.2893 11.8373 29.7189 11.5926L29.0688 11.3137C28.3611 10.0174 27.3319 8.82856 26.0625 7.83988V3.875C26.0625 3.35725 25.6427 2.9375 25.125 2.9375C24.2176 2.9375 23.3365 3.20644 22.5869 3.69C21.8575 1.54638 19.8247 0 17.4375 0C14.4599 0 12.0341 2.40588 12.0007 5.37569C9.49394 6.0835 7.32369 7.34956 5.69625 9.06C4.34837 10.4766 3.46925 12.0994 3.09925 13.8286C2.35156 13.4174 1.875 12.6319 1.875 11.75C1.875 11.3474 1.97831 10.9486 2.17388 10.5966C2.42531 10.1439 2.26225 9.57319 1.80963 9.32181C1.35713 9.07038 0.786312 9.23344 0.534875 9.68606C0.184937 10.3159 0 11.0296 0 11.75C0 13.5916 1.16144 15.1978 2.90019 15.7791C2.92144 19.0316 4.69119 22.0533 7.77969 24.1294C8.15225 25.7403 8.52512 27.3513 8.89894 28.9619C8.9975 29.3867 9.37606 29.6875 9.81213 29.6875H12.8748C13.311 29.6875 13.6897 29.3866 13.7881 28.9615L14.3475 26.5448C15.8162 26.7361 17.3332 26.7343 18.7994 26.5403C18.9863 27.3476 19.1732 28.1548 19.3606 28.962C19.4592 29.3868 19.8378 29.6875 20.2738 29.6875H23.3364C23.7726 29.6875 24.1513 29.3865 24.2497 28.9614L24.5841 27.5171C24.8477 26.3781 25.1114 25.2391 25.3754 24.1001C26.9675 23.0191 28.2339 21.6567 29.0679 20.1278L29.7801 19.8226C30.3309 19.5867 30.8818 19.3507 31.4324 19.1143C31.7768 18.9664 32 18.6276 32 18.2528V13.1879C32 12.8125 31.7759 12.4732 31.4306 12.3258ZM17.4375 1.875C19.4019 1.875 21 3.47312 21 5.4375C21 6.60956 20.4129 7.71387 19.4531 8.375H15.4219C14.4621 7.71387 13.875 6.60956 13.875 5.4375C13.875 3.47312 15.4731 1.875 17.4375 1.875ZM30.125 17.635C29.764 17.7898 29.4029 17.9445 29.0418 18.0991L28.0226 18.5359C27.8188 18.6232 27.6526 18.78 27.5534 18.9783C26.8256 20.4341 25.6117 21.7324 24.0427 22.7328C23.8358 22.8647 23.6889 23.0725 23.6335 23.3115C23.3411 24.5724 23.0492 25.8334 22.7573 27.0943L22.5911 27.8125H21.0187C20.8702 27.1718 20.7219 26.531 20.5736 25.8902L20.4289 25.2652C20.3155 24.7756 19.8367 24.4624 19.3423 24.5553C17.5387 24.8944 15.61 24.8968 13.8019 24.5614C13.3086 24.4699 12.8308 24.7829 12.7176 25.2716L12.1294 27.8125H10.5569C10.2112 26.3216 9.86613 24.8303 9.52131 23.3392C9.46569 23.0986 9.31744 22.8898 9.10875 22.7579C6.354 21.017 4.77413 18.4518 4.77413 15.72C4.77413 11.9256 7.77219 8.58781 12.3103 7.23769C12.4729 7.69831 12.6966 8.13531 12.9743 8.53613C12.7258 8.70475 12.5624 8.9895 12.5624 9.31244C12.5624 9.83019 12.9822 10.2499 13.4999 10.2499H21.3749C21.8927 10.2499 22.3124 9.83019 22.3124 9.31244C22.3124 8.9895 22.1491 8.70475 21.9006 8.53613C22.4224 7.783 22.7541 6.90256 22.8476 5.97719C22.8516 5.97213 22.8559 5.96763 22.8597 5.96244C23.1978 5.50375 23.6641 5.16288 24.1874 4.97575V8.30881C24.1874 8.61044 24.3326 8.89363 24.5774 9.06981C25.8858 10.0112 26.9151 11.1845 27.5541 12.4629C27.6532 12.6614 27.8195 12.8182 28.0234 12.9056L28.9794 13.3156C29.3612 13.4795 29.743 13.6433 30.1249 13.8068V17.635H30.125Z" fill="#666666"/>
<path d="M23.875 12.6875C23.3586 12.6875 22.9375 13.1086 22.9375 13.625C22.9375 14.1413 23.3586 14.5625 23.875 14.5625C24.3914 14.5625 24.8125 14.1414 24.8125 13.625C24.8125 13.1086 24.3914 12.6875 23.875 12.6875Z" fill="#666666"/>
</svg>
