<svg width="24" height="24" viewBox="0 0 24 24" fill="none" xmlns="http://www.w3.org/2000/svg">
<path fill-rule="evenodd" clip-rule="evenodd" d="M7.03524 8.64014L11.0312 4.06014C11.2752 3.78014 11.6292 3.61914 12.0002 3.61914C12.3712 3.61914 12.7252 3.78014 12.9692 4.06014L16.9652 8.64014L20.7782 6.23214C21.2052 5.96314 21.7502 5.96814 22.1722 6.24614C22.5942 6.52414 22.8142 7.02414 22.7342 7.52314L20.9222 18.8451C20.7812 19.7291 20.0182 20.3791 19.1242 20.3791H4.87624C3.98224 20.3791 3.21924 19.7291 3.07824 18.8451L1.26624 7.52314C1.18624 7.02414 1.40624 6.52414 1.82824 6.24614C2.25024 5.96814 2.79524 5.96314 3.22224 6.23214L7.03524 8.64014ZM2.82224 7.75414L4.55924 18.6081C4.58424 18.7641 4.71824 18.8791 4.87624 18.8791H19.1242C19.2822 18.8791 19.4162 18.7641 19.4412 18.6081L21.1782 7.75414L17.6112 10.0061C17.0752 10.3451 16.3722 10.2421 15.9552 9.76514L12.0002 5.23114L8.04524 9.76514C7.62824 10.2421 6.92524 10.3451 6.38924 10.0061L2.82224 7.75414Z" fill="#666666"/>
<path fill-rule="evenodd" clip-rule="evenodd" d="M20.0369 15.1289C20.4509 15.1289 20.7869 15.4649 20.7869 15.8789C20.7869 16.2929 20.4509 16.6289 20.0369 16.6289H3.96289C3.54889 16.6289 3.21289 16.2929 3.21289 15.8789C3.21289 15.4649 3.54889 15.1289 3.96289 15.1289H20.0369Z" fill="#666666"/>
</svg>
