<svg width="24" height="24" viewBox="0 0 24 24" fill="none" xmlns="http://www.w3.org/2000/svg">
<g clip-path="url(#clip0_1_7761)">
<path d="M3.51562 8.90625H11.4844C11.8727 8.90625 12.1875 8.59144 12.1875 8.20312C12.1875 7.81481 11.8727 7.5 11.4844 7.5H3.51562C3.12731 7.5 2.8125 7.81481 2.8125 8.20312C2.8125 8.59144 3.12731 8.90625 3.51562 8.90625Z" fill="white"/>
<path d="M9.60938 10.3125H3.51562C3.12731 10.3125 2.8125 10.6273 2.8125 11.0156C2.8125 11.4039 3.12731 11.7188 3.51562 11.7188H9.60938C9.99769 11.7188 10.3125 11.4039 10.3125 11.0156C10.3125 10.6273 9.99769 10.3125 9.60938 10.3125Z" fill="white"/>
<path d="M9.60938 13.125H3.51562C3.12731 13.125 2.8125 13.4398 2.8125 13.8281C2.8125 14.2164 3.12731 14.5312 3.51562 14.5312H9.60938C9.99769 14.5312 10.3125 14.2164 10.3125 13.8281C10.3125 13.4398 9.99769 13.125 9.60938 13.125Z" fill="white"/>
<path d="M9.60938 15.9375H3.51562C3.12731 15.9375 2.8125 16.2523 2.8125 16.6406C2.8125 17.0289 3.12731 17.3438 3.51562 17.3438H9.60938C9.99769 17.3438 10.3125 17.0289 10.3125 16.6406C10.3125 16.2523 9.99769 15.9375 9.60938 15.9375Z" fill="white"/>
<path d="M23.794 19.8228L20.2781 16.3068C21.7204 14.3805 21.5668 11.6293 19.8166 9.87909C19.3678 9.43027 18.8473 9.07908 18.2812 8.83561V5.39062C18.2812 5.20416 18.2072 5.02533 18.0753 4.89347L13.388 0.205969C13.2562 0.0741094 13.0773 0 12.8908 0H2.57812C1.15655 0 0 1.15655 0 2.57812V21.4219C0 22.8435 1.15655 24 2.57812 24H15.7031C17.1247 24 18.2812 22.8435 18.2812 21.4219V17.8831C18.6356 17.7307 18.972 17.5361 19.2842 17.3016L22.7997 20.8171C22.937 20.9544 23.1169 21.0231 23.2968 21.0231C23.4767 21.0231 23.6567 20.9544 23.794 20.8171C24.0687 20.5425 24.0687 20.0974 23.794 19.8228ZM18.8222 15.8453C18.4155 16.252 17.9265 16.5462 17.3929 16.7136C17.3765 16.718 17.3604 16.7231 17.3445 16.7287C17.0215 16.8248 16.6828 16.875 16.3363 16.875C15.3973 16.875 14.5144 16.5093 13.8504 15.8453C13.1864 15.1813 12.8207 14.2984 12.8207 13.3594C12.8207 12.4203 13.1864 11.5375 13.8504 10.8735C14.5144 10.2094 15.3973 9.84375 16.3363 9.84375C16.6829 9.84375 17.0217 9.89391 17.3448 9.99014C17.3605 9.99567 17.3764 10.0006 17.3926 10.005C17.9263 10.1724 18.4155 10.4666 18.8223 10.8734C20.193 12.2442 20.1929 14.4746 18.8222 15.8453ZM15.8806 4.6875H13.5938V2.40066L15.8806 4.6875ZM16.875 21.4219C16.875 22.068 16.3493 22.5938 15.7031 22.5938H2.57812C1.93195 22.5938 1.40625 22.068 1.40625 21.4219V2.57812C1.40625 1.93195 1.93195 1.40625 2.57812 1.40625H12.1875V5.39062C12.1875 5.77894 12.5023 6.09375 12.8906 6.09375H16.875V8.4668C16.6973 8.44758 16.5176 8.4375 16.3363 8.4375C15.0216 8.4375 13.7856 8.94947 12.856 9.87909C11.9264 10.8087 11.4144 12.0447 11.4144 13.3594C11.4144 14.6741 11.9264 15.9101 12.856 16.8397C13.7856 17.7693 15.0216 18.2812 16.3363 18.2812C16.5176 18.2812 16.6973 18.2712 16.875 18.252V21.4219Z" fill="white"/>
</g>
<defs>
<clipPath id="clip0_1_7761">
<rect width="24" height="24" fill="white"/>
</clipPath>
</defs>
</svg>
