<svg width="18" height="18" viewBox="0 0 18 18" fill="none" xmlns="http://www.w3.org/2000/svg">
<path d="M0.969749 8.46932L6.21975 3.21932C6.3612 3.0827 6.55065 3.00711 6.7473 3.00882C6.94395 3.01053 7.13206 3.0894 7.27111 3.22846C7.41017 3.36752 7.48905 3.55562 7.49076 3.75227C7.49246 3.94892 7.41687 4.13837 7.28025 4.27982L3.3105 8.24957H16.5C16.6989 8.24957 16.8897 8.32859 17.0303 8.46924C17.171 8.6099 17.25 8.80066 17.25 8.99957C17.25 9.19849 17.171 9.38925 17.0303 9.5299C16.8897 9.67056 16.6989 9.74957 16.5 9.74957H3.3105L7.28025 13.7193C7.35188 13.7885 7.40902 13.8713 7.44833 13.9628C7.48763 14.0543 7.50832 14.1527 7.50919 14.2523C7.51005 14.3519 7.49108 14.4506 7.45337 14.5428C7.41566 14.635 7.35997 14.7187 7.28955 14.7891C7.21913 14.8595 7.13539 14.9152 7.04322 14.9529C6.95104 14.9907 6.85228 15.0096 6.7527 15.0088C6.65312 15.0079 6.5547 14.9872 6.4632 14.9479C6.37169 14.9086 6.28894 14.8515 6.21975 14.7798L0.969749 9.52982C0.829145 9.38918 0.75016 9.19845 0.75016 8.99957C0.75016 8.8007 0.829145 8.60997 0.969749 8.46932Z" fill="#666666"/>
</svg>
