<svg width="32" height="32" viewBox="0 0 32 32" fill="none" xmlns="http://www.w3.org/2000/svg">
<path d="M29.4709 14.0808L3.67312 1.49651C3.45126 1.38828 3.20763 1.33203 2.96076 1.33203C2.0634 1.33203 1.33594 2.0595 1.33594 2.95686V3.00375C1.33594 3.22178 1.36267 3.43899 1.41555 3.65051L3.89018 13.549C3.95776 13.8194 4.18636 14.0191 4.46332 14.0499L15.3401 15.2584C15.7173 15.3003 16.0026 15.6191 16.0026 15.9987C16.0026 16.3783 15.7173 16.6971 15.3401 16.739L4.46332 17.9475C4.18636 17.9783 3.95776 18.178 3.89018 18.4484L1.41555 28.3468C1.36267 28.5584 1.33594 28.7756 1.33594 28.9936V29.0406C1.33594 29.9379 2.0634 30.6654 2.96076 30.6654C3.20763 30.6654 3.45126 30.6091 3.67312 30.5008L29.4709 17.9166C30.2041 17.559 30.6693 16.8146 30.6693 15.9987C30.6693 15.1828 30.2041 14.4384 29.4709 14.0808Z" fill="#01237C"/>
</svg>
