<svg width="24" height="24" viewBox="0 0 24 24" fill="none" xmlns="http://www.w3.org/2000/svg">
<g clip-path="url(#clip0_1_7721)">
<path d="M22.8875 10.2418L22.2385 9.59277C22.1168 9.47105 21.9518 9.40264 21.7796 9.40264H20.5752C20.4045 8.83815 20.1782 8.29253 19.899 7.772L20.7512 6.91986C20.8729 6.79814 20.9413 6.63307 20.9413 6.46094V5.54307C20.9413 5.37095 20.8729 5.20587 20.7512 5.08416L18.9154 3.24838C18.7937 3.12666 18.6286 3.05825 18.4565 3.05825H17.5386C17.3664 3.05825 17.2014 3.12666 17.0797 3.24838L16.2273 4.10074C15.7068 3.82161 15.1613 3.59548 14.5969 3.42487V2.21995C14.5969 2.04778 14.5285 1.88275 14.4068 1.76104L13.7577 1.112C13.6361 0.990284 13.471 0.921875 13.2988 0.921875H10.7027C10.5305 0.921875 10.3655 0.990284 10.2438 1.112L9.59472 1.76104C9.47301 1.88275 9.4046 2.04778 9.4046 2.21995V3.42435C8.84015 3.595 8.29448 3.82126 7.77395 4.10048L6.92181 3.24838C6.80009 3.12666 6.63502 3.05825 6.4629 3.05825H5.54503C5.3729 3.05825 5.20783 3.12666 5.08611 3.24838L3.25033 5.08412C3.12861 5.20583 3.0602 5.3709 3.0602 5.54303V6.4609C3.0602 6.63302 3.12861 6.7981 3.25033 6.91981L4.10269 7.77222C3.82356 8.2927 3.59743 8.8382 3.42682 9.4026H2.22191C2.04974 9.4026 1.88471 9.47101 1.76299 9.59273L1.11395 10.2418C0.992237 10.3635 0.923828 10.5286 0.923828 10.7007V13.2969C0.923828 13.469 0.992237 13.6341 1.11395 13.7558L1.76299 14.4048C1.88471 14.5265 2.04974 14.595 2.22191 14.595H3.42682C3.59743 15.1594 3.82356 15.7049 4.10269 16.2253L3.25033 17.0777C3.12861 17.1995 3.0602 17.3645 3.0602 17.5367V18.4545C3.0602 18.6266 3.12861 18.7917 3.25033 18.9134L5.08611 20.7492C5.20783 20.8709 5.3729 20.9393 5.54503 20.9393H6.4629C6.63502 20.9393 6.80009 20.8709 6.92181 20.7492L7.77395 19.8971C8.29448 20.1763 8.84011 20.4025 9.4046 20.5732V21.7776C9.4046 21.9498 9.47301 22.1148 9.59472 22.2366L10.2438 22.8856C10.3655 23.0073 10.5305 23.0757 10.7027 23.0757H13.2988C13.471 23.0757 13.6361 23.0073 13.7577 22.8856L14.4068 22.2366C14.5285 22.1148 14.5969 21.9498 14.5969 21.7776V20.5727C15.1613 20.4021 15.7068 20.176 16.2273 19.8969L17.0797 20.7492C17.2014 20.8709 17.3665 20.9393 17.5386 20.9393H18.4565C18.6286 20.9393 18.7937 20.8709 18.9154 20.7492L20.7512 18.9134C20.8729 18.7917 20.9413 18.6266 20.9413 18.4545V17.5367C20.9413 17.3645 20.8729 17.1995 20.7512 17.0777L19.899 16.2256C20.1783 15.7051 20.4045 15.1595 20.5752 14.595H21.7796C21.9518 14.595 22.1168 14.5265 22.2385 14.4048L22.8875 13.7558C23.0093 13.6341 23.0777 13.469 23.0777 13.2969V10.7007C23.0777 10.5286 23.0093 10.3635 22.8875 10.2418ZM21.7796 13.028L21.5108 13.2969H20.0789C19.7789 13.2969 19.518 13.5025 19.4479 13.7943C19.2612 14.571 18.9543 15.3112 18.5357 15.9943C18.3789 16.2502 18.4179 16.5802 18.6301 16.7924L19.6432 17.8055V18.1857L18.1876 19.6413H17.8074L16.7942 18.628C16.582 18.4158 16.2521 18.3768 15.9961 18.5335C15.3131 18.952 14.5729 19.2589 13.7963 19.4454C13.5045 19.5154 13.2988 19.7764 13.2988 20.0765V21.5088L13.03 21.7776H10.9715L10.7027 21.5088V20.077C10.7027 19.7769 10.497 19.516 10.2052 19.4459C9.42853 19.2593 8.68836 18.9524 8.00527 18.5338C7.74942 18.3769 7.41936 18.416 7.20717 18.6282L6.19406 19.6413H5.81386L4.35828 18.1857V17.8055L5.37156 16.7922C5.58375 16.58 5.62282 16.25 5.46606 15.9942C5.04752 15.3111 4.74074 14.571 4.55416 13.7944C4.48411 13.5026 4.22315 13.2969 3.92308 13.2969H2.49074L2.22191 13.028V10.9696L2.49074 10.7007H3.92308C4.22315 10.7007 4.48411 10.495 4.55416 10.2033C4.74074 9.42662 5.04752 8.6865 5.46606 8.00345C5.62282 7.74755 5.58375 7.41758 5.37156 7.20543L4.35828 6.19215V5.81195L5.81386 4.35637H6.19406L7.20717 5.36948C7.41936 5.58167 7.74938 5.6207 8.00527 5.46389C8.68841 5.04517 9.42857 4.73826 10.2052 4.55173C10.497 4.48163 10.7027 4.22068 10.7027 3.92061V2.48878L10.9715 2.21995H13.03L13.2988 2.48878V3.92113C13.2988 4.2212 13.5045 4.48215 13.7963 4.55221C14.5729 4.73874 15.3131 5.04556 15.9961 5.46411C16.252 5.62087 16.582 5.58184 16.7942 5.36961L17.8074 4.35633H18.1876L19.6432 5.8119V6.19211L18.6301 7.20522C18.4179 7.41741 18.3789 7.74742 18.5357 8.00332C18.9543 8.68641 19.2613 9.42662 19.4479 10.2033C19.518 10.4951 19.7789 10.7007 20.0789 10.7007H21.5108L21.7796 10.9696V13.028Z" fill="#666666"/>
<path d="M15.7638 10.312H15.2938V9.45264C15.2938 7.63611 13.8159 6.1582 11.9994 6.1582C10.1828 6.1582 8.70497 7.63606 8.70497 9.45264V10.312H8.23498C7.87653 10.312 7.58594 10.6026 7.58594 10.9611V15.3443C7.58594 16.6954 8.69419 17.7946 10.0565 17.7946H13.9424C15.3046 17.7946 16.4129 16.6954 16.4129 15.3443V10.9611C16.4129 10.6026 16.1223 10.312 15.7638 10.312ZM10.003 9.45264C10.003 8.35187 10.8986 7.45628 11.9994 7.45628C13.1002 7.45628 13.9958 8.35182 13.9958 9.45264V10.312H10.003V9.45264ZM15.1148 15.3443C15.1148 15.9796 14.5888 16.4965 13.9423 16.4965H10.0564C9.40995 16.4965 8.88397 15.9796 8.88397 15.3443V11.6101H15.1147V15.3443H15.1148Z" fill="#666666"/>
<path d="M11.4365 14.9247C11.5583 15.0464 11.7233 15.1148 11.8955 15.1148C12.0676 15.1148 12.2327 15.0464 12.3544 14.9247L13.5617 13.7173C13.8152 13.4638 13.8152 13.0529 13.5617 12.7994C13.3083 12.546 12.8973 12.546 12.6438 12.7994L11.8955 13.5478L11.7076 13.36C11.4542 13.1065 11.0432 13.1065 10.7897 13.36C10.5362 13.6135 10.5362 14.0244 10.7897 14.2779L11.4365 14.9247Z" fill="#666666"/>
</g>
<defs>
<clipPath id="clip0_1_7721">
<rect width="24" height="24" fill="white"/>
</clipPath>
</defs>
</svg>
