<svg width="18" height="18" viewBox="0 0 18 18" fill="none" xmlns="http://www.w3.org/2000/svg">
<g opacity="0.8">
<path fill-rule="evenodd" clip-rule="evenodd" d="M13.5 9C15.1568 9 16.5 7.65683 16.5 6C16.5 4.34315 15.1568 3 13.5 3C12.1022 3 10.9276 3.95608 10.5945 5.25H2.25C1.83579 5.25 1.5 5.58579 1.5 6C1.5 6.41422 1.83579 6.75 2.25 6.75H10.5945C10.9276 8.0439 12.1022 9 13.5 9ZM12 6C12 6.82843 12.6716 7.5 13.5 7.5C14.3285 7.5 15 6.82843 15 6C15 5.17157 14.3285 4.5 13.5 4.5C12.6716 4.5 12 5.17157 12 6ZM1.5 12C1.5 10.3432 2.84315 9 4.5 9C5.89788 9 7.07246 9.9561 7.40549 11.25H15.75C16.1642 11.25 16.5 11.5858 16.5 12C16.5 12.4142 16.1642 12.75 15.75 12.75H7.40549C7.07246 14.0439 5.89788 15 4.5 15C2.84315 15 1.5 13.6568 1.5 12ZM6 12C6 11.1716 5.32843 10.5 4.5 10.5C3.67157 10.5 3 11.1716 3 12C3 12.8285 3.67157 13.5 4.5 13.5C5.32843 13.5 6 12.8285 6 12Z" fill="#01237C"/>
</g>
</svg>
