<svg width="24" height="24" viewBox="0 0 24 24" fill="none" xmlns="http://www.w3.org/2000/svg">
<g clip-path="url(#clip0_1_30514)">
<path d="M16.9346 14.2077C15.885 14.2077 14.9454 14.6865 14.3219 15.437L10.2663 13.1344C10.3924 12.7795 10.4617 12.3979 10.4617 12.0002C10.4617 11.6026 10.3924 11.221 10.2663 10.8661L14.3216 8.56297C14.945 9.31374 15.8847 9.7927 16.9344 9.7927C18.8067 9.7927 20.3299 8.26891 20.3299 6.39583C20.3301 4.52332 18.8068 3 16.9346 3C15.062 3 13.5386 4.52332 13.5386 6.39576C13.5386 6.79344 13.6079 7.17512 13.7341 7.5301L9.67858 9.83334C9.0552 9.08297 8.11566 8.60432 7.06631 8.60432C5.19356 8.60432 3.66992 10.1276 3.66992 12.0002C3.66992 13.8726 5.19356 15.3959 7.06631 15.3959C8.11566 15.3959 9.05512 14.9173 9.6785 14.167L13.7341 16.4697C13.6079 16.8246 13.5386 17.2064 13.5386 17.6042C13.5386 19.4766 15.062 20.9999 16.9345 20.9999C18.8068 20.9999 20.33 19.4765 20.33 17.6042C20.3301 15.7314 18.8068 14.2077 16.9346 14.2077ZM16.9346 4.1883C18.1516 4.1883 19.1418 5.17854 19.1418 6.39576C19.1418 7.6136 18.1516 8.60432 16.9346 8.60432C15.7173 8.60432 14.7269 7.6136 14.7269 6.39576C14.7269 5.17854 15.7173 4.1883 16.9346 4.1883ZM7.06639 14.2077C5.84886 14.2077 4.8583 13.2174 4.8583 12.0002C4.8583 10.7829 5.84886 9.7927 7.06639 9.7927C8.28344 9.7927 9.27353 10.7829 9.27353 12.0002C9.27353 13.2174 8.28336 14.2077 7.06639 14.2077ZM16.9346 19.8117C15.7173 19.8117 14.7269 18.8214 14.7269 17.6042C14.7269 16.3866 15.7173 15.396 16.9346 15.396C18.1516 15.396 19.1418 16.3866 19.1418 17.6042C19.1418 18.8214 18.1516 19.8117 16.9346 19.8117Z" fill="#5BBB7B"/>
</g>
<defs>
<clipPath id="clip0_1_30514">
<rect width="18" height="18" fill="white" transform="translate(3 3)"/>
</clipPath>
</defs>
</svg>
