<svg width="32" height="32" viewBox="0 0 32 32" fill="none" xmlns="http://www.w3.org/2000/svg">
<path d="M27.334 10.6667C28.4386 10.6667 29.334 9.77132 29.334 8.66675C29.334 7.56218 28.4386 6.66675 27.334 6.66675C26.2294 6.66675 25.334 7.56218 25.334 8.66675C25.334 9.77132 26.2294 10.6667 27.334 10.6667Z" fill="#333333"/>
<path d="M22.0003 10.6667H4.66699C3.56286 10.6667 2.66699 9.77088 2.66699 8.66675C2.66699 7.56261 3.56286 6.66675 4.66699 6.66675H22.0003C23.1045 6.66675 24.0003 7.56261 24.0003 8.66675C24.0003 9.77088 23.1045 10.6667 22.0003 10.6667Z" fill="#333333"/>
<path d="M22.0003 18.6667H4.66699C3.56286 18.6667 2.66699 17.7709 2.66699 16.6667C2.66699 15.5626 3.56286 14.6667 4.66699 14.6667H22.0003C23.1045 14.6667 24.0003 15.5626 24.0003 16.6667C24.0003 17.7709 23.1045 18.6667 22.0003 18.6667Z" fill="#333333"/>
<path d="M14.0003 26.6667H4.66699C3.56286 26.6667 2.66699 25.7709 2.66699 24.6667C2.66699 23.5626 3.56286 22.6667 4.66699 22.6667H14.0003C15.1045 22.6667 16.0003 23.5626 16.0003 24.6667C16.0003 25.7709 15.1045 26.6667 14.0003 26.6667Z" fill="#333333"/>
</svg>
