<svg width="18" height="18" viewBox="0 0 18 18" fill="none" xmlns="http://www.w3.org/2000/svg">
<g clip-path="url(#clip0_1_8121)">
<path d="M3.24055 15.1566C3.42055 15.1566 3.45655 15.1386 3.61855 15.1026L6.85855 14.4546C7.20055 14.3646 7.54255 14.2026 7.81255 13.9326L15.6606 6.08459C16.8666 4.87859 16.8666 2.80859 15.6606 1.60259L14.9946 0.900594C13.7886 -0.305406 11.7006 -0.305406 10.4946 0.900594L2.64655 8.76659C2.39455 9.01859 2.21455 9.37859 2.12455 9.72059L1.44055 12.9966C1.35055 13.6086 1.53055 14.2026 1.96255 14.6346C2.30455 14.9766 2.80855 15.1566 3.24055 15.1566ZM3.85255 10.0626L11.7006 2.19659C12.2226 1.67459 13.1766 1.67459 13.6806 2.19659L14.3646 2.88059C14.9766 3.49259 14.9766 4.35659 14.3646 4.95059L6.53455 12.8166L3.20455 13.3746L3.85255 10.0626Z" fill="#01237C"/>
<path d="M15.5894 16.2734H2.30541C1.78341 16.2734 1.44141 16.6154 1.44141 17.1374C1.44141 17.6594 1.87341 18.0014 2.30541 18.0014H15.5174C16.0394 18.0014 16.4714 17.6594 16.4714 17.1374C16.4534 16.6154 16.0214 16.2734 15.5894 16.2734Z" fill="#01237C"/>
</g>
<defs>
<clipPath id="clip0_1_8121">
<rect width="18" height="18" fill="white"/>
</clipPath>
</defs>
</svg>
